<?xml version="1.0" encoding="utf-8"?>
<!-- Generator: Adobe Illustrator 24.3.0, SVG Export Plug-In . SVG Version: 6.00 Build 0)  -->
<svg version="1.1"
	 id="Layer_1" inkscape:output_extension="org.inkscape.output.svg.inkscape" inkscape:version="0.46" sodipodi:docname="notice_of_meeting_2006.svg" sodipodi:version="0.32" xmlns:cc="http://creativecommons.org/ns#" xmlns:dc="http://purl.org/dc/elements/1.1/" xmlns:inkscape="http://www.inkscape.org/namespaces/inkscape" xmlns:rdf="http://www.w3.org/1999/02/22-rdf-syntax-ns#" xmlns:sodipodi="http://sodipodi.sourceforge.net/DTD/sodipodi-0.dtd" xmlns:svg="http://www.w3.org/2000/svg"
	 xmlns="http://www.w3.org/2000/svg" xmlns:xlink="http://www.w3.org/1999/xlink" x="0px" y="0px" viewBox="0 0 68 68"
	 style="enable-background:new 0 0 68 68;" xml:space="preserve">
<style type="text/css">
	.st0{display:none;}
	.st1{fill:url(#SVGID_1_);}
	.st2{fill:url(#SVGID_2_);}
</style>
<g id="Guide" transform="translate(0.00889585,1.921487)" class="st0">
</g>
<g>
	
		<linearGradient id="SVGID_1_" gradientUnits="userSpaceOnUse" x1="39.1238" y1="53.0778" x2="29.7245" y2="36.7978" gradientTransform="matrix(1 0 0 -1 0 70)">
		<stop  offset="0" style="stop-color:#000000"/>
		<stop  offset="1" style="stop-color:#000000"/>
	</linearGradient>
	<path class="st1" d="M35.1,15.7h-3.1c-0.3,1.3-0.4,2.5-0.6,3.8l-2.2,13.5H33c4.9,0,8.5-4,8.5-10.2C41.5,18.5,39,15.7,35.1,15.7z"/>
	
		<linearGradient id="SVGID_2_" gradientUnits="userSpaceOnUse" x1="53.6383" y1="65.5826" x2="16.1059" y2="0.5746" gradientTransform="matrix(1 0 0 -1 0 70)">
		<stop  offset="0" style="stop-color:#000000"/>
		<stop  offset="1" style="stop-color:#000000"/>
	</linearGradient>
	<path class="st2" d="M53.8,38.9c11.7-8.7,9.6-18.6,9.6-18.6C62.5,8.4,52.4,0.4,37.9,0.4c0,0-17.7,0.7-20.9,1.4
		c-3.8,0.8-6.4,4.3-6.1,8.1c0,2.6-0.1,5.4-0.7,8.3L5.1,51.3c-0.4,1.9-1.4,7.9,2.4,12.4c1.5,1.8,4.3,3.9,9.2,3.9
		c2.2,0,8.2-0.3,13.1-2.5c1.3-0.6,2.4-1.5,3.2-2.6c2.6,3.1,6.5,5.3,12.2,5.3c5,0,9.9-1.3,14.3-3.5c0,0,4.3-3.1,2.5-7.6
		C58.1,51,53.8,38.9,53.8,38.9z M53.5,58.5c-2.6,0.8-5.6,1.4-8.3,1.3c-2.8,0-6.5-0.7-8.9-7.5l-4-11.7h-4l-1.8,11.1
		c-0.3,1.3-0.4,2.5-0.4,3.8v0.3c0,0.7,0.1,1.4,0.4,2.1c-3.1,1.4-7.2,1.8-9.7,1.8c-2.1,0-4-0.7-4.2-4.3c0-1,0.1-1.9,0.3-2.9l5.1-33.1
		c0.4-2.5,0.7-5.1,0.7-7.7c0-0.8,0-2.6,0-2.6c1.7-0.4,7.7-1.1,13.1-1.1c0,0,0.1,0,0.1,0c0.3,0,0.6,0,0.8,0h5
		c3.6-0.1,7.1,0.7,10.4,2.1c0.8,0.4,1.8,1,2.5,1.5c0.7,0.6,1.4,1.3,2.1,1.9c0.8,1.1,1.5,2.2,2.1,3.6c0.4,1.4,0.7,2.8,0.7,4.3
		c0,0.4,0,0.8,0,1.3C55,28.8,51.1,33.8,45.1,37l5.4,14.3c1.5,3.9,2.5,5.4,4.2,6.7C54.3,58.3,53.9,58.4,53.5,58.5z"/>
</g>
</svg>
