<?xml version="1.0" encoding="utf-8"?>
<!-- Generator: Adobe Illustrator 24.2.1, SVG Export Plug-In . SVG Version: 6.00 Build 0)  -->
<svg version="1.1" xmlns="http://www.w3.org/2000/svg" xmlns:xlink="http://www.w3.org/1999/xlink" x="0px" y="0px"
	 viewBox="0 0 68 68" style="enable-background:new 0 0 68 68;" xml:space="preserve">
<style type="text/css">
	.st0{fill:#EC0000;}
	.st1{fill:#FFFFFF;}
</style>
<g id="Layer_1">
	<path class="st0" d="M0,0v68h68V0H0z M34,61.65c-16.07,0-29.09-7.04-29.09-15.76c0-6.27,6.7-11.66,16.46-14.21
		c-0.11,2.36,0.43,4.72,1.67,6.85l9.1,15.92c0.7,1.2,1.16,2.48,1.43,3.8l0.39-0.66c2.25-3.91,2.25-8.72,0-12.63L26.64,32.3
		c-2.21-3.92-2.21-8.72,0.04-12.59l0.39-0.66c0.27,1.32,0.73,2.59,1.43,3.8l4.26,7.35l6.66,11.55c0.7,1.2,1.16,2.48,1.44,3.79
		l0.38-0.66c2.25-3.91,2.25-8.71,0-12.62l-7.28-12.63c-2.25-3.91-2.25-8.71,0-12.63l0.39-0.65c0.27,1.31,0.73,2.59,1.43,3.79
		l9.1,15.76c1.01,1.79,1.59,3.8,1.67,5.78c9.76,2.55,16.5,7.94,16.54,14.21C63.09,54.61,50.07,61.65,34,61.65z"/>
</g>
<g id="Layer_2">
	<path class="st1" d="M63.09,45.89c0,8.72-13.02,15.76-29.09,15.76S4.91,54.61,4.91,45.89c0-6.27,6.7-11.66,16.46-14.21
		c-0.11,2.36,0.43,4.72,1.67,6.85l9.1,15.92c0.7,1.2,1.16,2.48,1.43,3.8l0.39-0.66c2.25-3.91,2.25-8.72,0-12.63L26.64,32.3
		c-2.21-3.92-2.21-8.72,0.04-12.59l0.39-0.66c0.27,1.32,0.73,2.59,1.43,3.8l4.26,7.35l6.66,11.55c0.7,1.2,1.16,2.48,1.44,3.79
		l0.38-0.66c2.25-3.91,2.25-8.71,0-12.62l-7.28-12.63c-2.25-3.91-2.25-8.71,0-12.63l0.39-0.65c0.27,1.31,0.73,2.59,1.43,3.79
		l9.1,15.76c1.01,1.79,1.59,3.8,1.67,5.78C56.31,34.23,63.05,39.62,63.09,45.89z"/>
</g>
</svg>
