<?xml version="1.0" encoding="utf-8"?>
<!-- Generator: Adobe Illustrator 24.0.3, SVG Export Plug-In . SVG Version: 6.00 Build 0)  -->
<svg version="1.1" id="Layer_1" xmlns="http://www.w3.org/2000/svg" xmlns:xlink="http://www.w3.org/1999/xlink" x="0px" y="0px"
	 viewBox="0 0 68 68" style="enable-background:new 0 0 68 68;" xml:space="preserve">
<style type="text/css">
	.st0{fill:#F26322;}
</style>
<path class="st0" d="M64.7,14.1c-1.1-0.2-2.5-0.1-3.2,0.9c-0.6,0.9-1.5,2-1.2,3.2c2,0.8,2.9,3,4.9,3.6c0.8,0.2,1.8-0.6,1.9-1.4
	c0.1-0.5,0.2-1.1,0.3-1.7v-1.8c-0.1-0.5-0.2-1.1-0.5-1.6C66.6,14.5,66.1,14.4,64.7,14.1z"/>
<path class="st0" d="M62.1,42.5c1.2,0.3,2,0.4,3.2,0.6c0.2,0,1.2,0.2,2.3,0.4V32.7c-0.6,2.8-1.5,2.6-2.3,4.2
	c-0.5,1.1-0.9,2.5-1.7,3.6c-0.3,0.3-0.8,0.8-1.7,1.3C61.5,42.1,62,42.4,62.1,42.5z"/>
<path class="st0" d="M66.6,25.3c-0.3,1.4-0.1,3.3-0.3,4.8c-0.1,0.9-0.5,1.7-0.6,2.6c0.6-0.2,1.2-0.8,1.9-0.8v-7.2
	c-0.1,0.1-0.3,0.1-0.4,0.2C67,25,66.7,25.1,66.6,25.3z"/>
<path class="st0" d="M62.1,38.8c0-0.1,0.3-0.4,0.3-0.5c-1-0.8-2.3-1-3.2-1.5c-0.1-0.1-0.4-0.3-0.5-0.4c-0.6-0.6-0.8-1.9-1.9-2
	c-0.1,0-0.3-0.1-0.3-0.3c0-0.6-0.4-3-0.4-3.4c0-0.3-0.1-0.5-0.1-0.9c0-0.1,0-0.1,0.1-0.1c0.8,1.1,1.9,1.2,2.6,1.2
	c1,0.1,2.2-0.4,2.6-1.4c0.1-0.1,0.2-0.8,0.6-1c0.5-0.2,1.2-0.5,1.6-0.9c0.1-0.1,0.4-0.6,0.4-0.8s0-0.2-0.1-0.2c-1.1-0.1-2-0.1-3-0.1
	c-0.8,0-2.6,0-2.8,0c-0.4,0-1,0-1.4,0c-0.2,0-0.9,0.1-1.1,0.2c-0.9,0.2-1.5,1-1.6,1.3c0,0.2,0.1,1,0.1,1.3c0,0.4,0.1,1,0.1,1.4
	c0,0.4,0,0.9,0.1,1.3c0.3,1.3,0.4,2.6,0.4,4c0.9,0.6,1.3,0.6,1.7,1.1c0.5,0.5,0.9,1.2,1.1,1.9c1.3,0.3,2.5,1.2,3.6,2
	C61,40.8,61.9,39.4,62.1,38.8z"/>
<path class="st0" d="M65.1,48.1c0.3,0.1,1.3,0.6,2.5,1.2v-3.6c-1.1-0.3-2.4-0.5-2.8-0.6c-0.8-0.2-1.7-0.3-2.5-0.5
	c-0.1,0.5-0.4,1.9-0.4,2.2c0.3,0.1,0.4,0.2,0.5,0.2C63.4,47.2,64.2,47.7,65.1,48.1z"/>
<path class="st0" d="M59.4,43.9c-0.4,0-1.1-0.1-1.6,0c-0.1,0-0.3,0.1-0.5,0.1c-0.3,0.1-1,0.2-1,0.6c0.3,0.1,0.6,0.2,1,0.3
	c0.6,0.2,0.5,0.3,0.9,0.4c0.6,0.2,1.3,0.4,1.9,0.5c0-0.2,0-0.4,0.1-0.6c0.1-0.4,0.3-0.6,0.1-1.2C60,43.9,59.6,43.9,59.4,43.9z"/>
<path class="st0" d="M54.7,23.7c0,0.2,0.3,0.2,0.6,0.3c0.4,0,1.6,0,1.9-0.1c0.2-0.2,0.6,0,1-0.2c0.5-0.3,0-1.2-0.4-1.3
	s-0.8-0.5-1.1-0.9c-0.2-0.2-0.5-0.5-0.9-0.6c-1.3-0.3-1.9-0.4-2.8-0.2c-0.2,0-0.9,0.1-0.8,0.4c0.1,0.1,0.3,0.1,0.5,0.4
	s0.8,0.3,1.1,0.5C54.4,22.2,54.5,23.2,54.7,23.7z"/>
<path class="st0" d="M39.8,18.2c0.2-0.1,0.2-0.4,0.2-0.5c-0.5-2.2-1.2-2.3-2.4-2.8c-0.8-0.3-1.4-0.5-2-0.4c-1.1,0.2-3.1,0.9-3.8,2.5
	c-0.2,0.4-0.3,1.6,0.4,2.9c0.6,1.3,1.8,2,2.7,2.5c0.3,0.2,0.5-0.3,0.6-0.4c0.1-0.2,1.3-1.4,1.8-1.8C37.9,19.4,39.6,18.3,39.8,18.2z"
	/>
<path class="st0" d="M45.7,30.4c0-0.2,0.1-2,0.1-2.3c0-0.8-0.6-1.4-1.3-1.5c-0.2,0-0.9-0.2-1.7-0.1c-0.6,0.1-1.6,0.1-2.3,0
	c-1.3-0.1-2.7,0-4.1,0.1c-0.2,0-0.2,0.3-0.1,0.4c0.5,0.5,1.2,1.1,1.8,1.4c0.4,0.2,0.4,0.9,0.8,1.2c0.5,0.6,1.4,1.2,2.6,1.1
	c0.8-0.1,1-0.1,1.4-0.4c0.2-0.1,0.3,0,0.3,0.2c0.1,0.6,0.1,1.5,0.1,2.2c0,0.4,0.1,2.7-1,2.9c-0.9,0.3-2.2,1.1-2.7,1.9
	c-0.5,0.6-0.9,2.4-0.1,2.8c0.6,0.3,1.2-0.8,2.3-1c0.8-0.2,0.8-0.9,1.3-1.6c0.4-0.8,1.8-1.1,1.9-1.5c0.1-0.3,0-0.6,0-1
	C45.2,32.7,45.3,32.3,45.7,30.4z"/>
<path class="st0" d="M67,62.5c0.1-1.3-0.8-2.4-1.4-3.4c-0.1-0.1,0-0.2,0.1-0.2c0.4-0.1,0.9,0.1,1.2,0.1c0.4,0.1,0.6,0.1,0.9,0.2V51
	c-0.8-0.4-1.5-0.9-1.8-1.1c-1.9-1-2.6-1.4-4.6-2.2c-0.5,0.6-0.9,1.5-1.7,1.9c-0.5,0.3-2.6-1.5-3.8-2c-1-0.4-2.6-1-3.7-1.1
	c-0.3,0-0.4-0.5-0.5-1c-0.2-0.9-0.4-1.8-0.1-1.9c1.3-0.6,2-1.9,2-2.7c0-0.3,0.1-0.4,0.3-0.3c0.4,0.1,0.9,0.5,1.5,0.1
	c0.5-0.4,0.8-1.1,0.6-1.6c-0.1-0.6-0.4-1.1-1.1-1.3c-3.1-1.1-6.2-1-9.3,0.2c-0.9,0.3-0.9,1.4-0.5,2.3c0.3,1.1,1.6,0.6,2.3,0.2
	c0.3-0.2-0.1,0.8,0.3,1.6c0.8,1.3,1.8,1.5,1.8,1.8c0,0.9-0.1,1-0.2,1.5c-0.1,0.6-0.1,1.2-0.9,1.4c-1.7,0.3-3.2,1-4.8,1.5
	c-1,0.3-1.7,1.3-2.6,1.3c-0.8,0-1.2-1.2-1.7-1.4s-0.6-0.3-1.6,0.1c-3.1,1.2-7.2,3.2-10.1,4.9C27,52.7,27.1,52,27,51.2
	c3.2-2.2,6.8-3.8,10.3-5.4c0.3-0.1,0.1-1.3-0.1-1.6c-0.1-0.2-2,0-5.9,1c-2.6,0.6-5.3,1.9-5.4,1.9s-0.3-0.3-0.3-0.5
	c-0.1-0.5-0.5-1.3-0.1-1.5c1.8-1,3.9-1.6,5.9-2.2s4-1,6-1.3c0-0.1-0.1-0.6-0.1-0.9c-0.8-1.9-2.5-3.4-4-4.9c-0.3-0.3-0.6-0.8-0.6-1.2
	c-0.1-0.6-0.5-1.7-0.3-1.9c0.3-0.2,0.5,0.1,1.2,0.3c0.1,0,0.5,0.1,0.6,0.1c-0.1-1.1-0.3-2.2-0.5-3.3c-0.2-1.3-0.1-3.3,0.1-4.9
	c0-0.3,0.1-0.4-0.2-0.8c-0.2-0.3-1.5-1-1.7-1c-0.6-0.1-1-0.3-1.3-1c-0.6-1.3-1.7-2.5-1.7-4c0-1.4,0.6-2.9,1.2-4.2
	c0.4-1.1,1.7-1.2,2.7-1.7c0.9-0.5,1.9-1,2.8-1.1c0.9-0.1,1.9,0.5,2.6,0.9c0.8,0.3,1.7,0.8,2.6,1.4c1.1,0.9,1.6,2,2.3,3.2
	c0.9-0.1,1.6-0.1,2.6,0c1.4,0.2,2.7,0.5,4,1.1c0.1,0,0.5,0.2,0.6,0.3c2-1.4,4.6-2.3,7.1-1.9c0.2,0,0.3,0,0.3-0.3
	c0.1-1.1,1.1-2.5,1.5-3c0.9-1.2,1.7-1.6,2.9-1.8c1.4-0.3,3.7,0.4,5.8,1.4l0,0V8.5c-0.5-0.1-1.6-0.4-2.4-0.8c-0.2-0.1-1.2-0.3-2-0.5
	c-0.6-0.2-2-0.8-2.6-0.8c-0.4,0-0.4,0.1-0.6,0.2c-0.5,0.4-1.2,0.9-1.8,1.4c-0.9,0.6-1.6,1.4-2.6,1.8c-0.9,0.4-2.6,0.8-4.4,1.3
	c-0.6,0.2-1.3,0.5-1.6,0.5c-0.1,0-0.3,0.1-0.4-0.1c-0.3-1.1-0.5-2.2-0.2-3.1c0.1-0.3,0.1-0.3-0.1-0.4c-0.6-0.5-2-0.4-2.8-1.1
	c-0.1,0.1-0.2,0.5-0.2,0.6c-0.5,1.2-1.1,2.4-1.7,3.3c-0.9-0.6-2.2-1-3.3-1.7c-1.6-1.1-4.9-3.2-5.4-3.7c-1.3,1.1-4.8,3.3-6.8,4.3
	c-0.3,0.5-2,2.8-2.5,3c-0.1,0.1-0.5,0-1.4-0.5c0,0-1.3-0.6-1.4-0.8c0.6-1,1.2-2,2-2.8c1.3-1.6,2.8-3.2,4.1-4.5
	c2.9-0.8,5.6-1.7,8.5-2.4c1.3,1.7,4.3,4.6,4.3,4.6c0.1,0.1,0.2,0.1,0.3,0c0.1-0.4,0.6-2.3,1.2-4c1.1,0.4,1.5,0.5,2.6,1
	c0.3,0.1,1.1,0.5,1.2,0.5S49.6,3,50,2.8c0.6-0.3,1.5-1.1,1.8-0.5c0.1,0.3,0.4,2,0.4,2.3c-0.2,0.3,0,2.3,0,2.6c0.2,0,0.6,0,1.2-0.3
	c1.5-0.6,1.5-2,1.6-2.6c0.2-1,0.2-1.9,0.8-2.7c0.1-0.2,1.8,0,2.3,0.1c0.4,0.2,0.1,1.1,0.1,1.6c0,0.4,0,1.4,0.2,1.4
	c0.3,0,0.8,0,1-0.3c0.3-0.3,2.2-1.9,2.5-2.2c0.2-0.2,0.2-0.3,0.4-0.2c1.9,0.6,3.8,1.6,5.6,2.7c-0.2-2.6-2.4-4.5-4.9-4.5H5
	c-2.8,0-4.9,2.2-4.9,4.8v58.1c0,2.7,2.3,4.8,4.9,4.8h17.3c-0.2-0.5-0.5-1.5-0.9-1.9c-0.2-0.4-0.4-0.8-0.6-1.3
	c0.2-0.1,1.4-0.4,1.5-0.4c0.6-0.2,2.9-1.2,3.6-1.4c0.3-0.1,0.6-0.2,0.8,0.1c0.2,0.6,0.6,1.5,1.1,2.2c-0.6,0.4-1.8,1.8-2.7,2.8h17.9
	c-0.2-0.6-0.3-1.3-0.3-1.7c0-0.5,0.3-0.5,0.2-1.7c0-0.2,0-0.5,0.1-0.8c0.2-0.2,0.3,0.1,0.5,0.2c0.4,0.1,1.2,0.3,1.6,0.3
	c0.5,0,1.1,0.3,1.3,0.8c0.4,0.8,0.2,1.7,0.3,2.7c0,0.1,0,0.1,0,0.2h2.7c0-0.3-0.1-0.6-0.1-1c-0.1-0.9-0.3-1.6-0.2-2.5
	c0-0.4,0.6-0.4,1.1-0.5c1.1-0.4,1.8-0.5,2.7-1c0.2,1.6,0.1,3.4-0.1,4.6c0,0.1-0.1,0.2-0.1,0.3h2.9c0-0.2,0-0.6,0-1.1
	c-0.1-0.6-0.2-1.8-0.3-3.1c0-0.3,1.6-1.1,2.5-1.6c0.2-0.1,0.8-0.6,0.8-0.3c0,1.6-0.1,3.2,0.1,4.8c0.1,0.4,0.2,0.8,0.3,1.2h4.1
	c0.1,0,0.1,0,0.2,0c-0.8-0.9-1.9-3-2-3.6c-0.3-0.9-0.2-2.7,0.2-3.7c0.1-0.3,0.6,0,0.9,0.1c0.6,0.3,0.9,0.3,1.5,0.6
	c0.4,0.2,0.1,0.3,0.2,1c0.1,0.9,0.4,1.5,0.5,1.7c0.1,0.3,0.3,1.6,1.2,3.1c1.5-0.9,2.5-2.4,2.5-4.2l0,0C67.6,62.9,67.3,62.8,67,62.5z
	 M27,30.4c0,0.5-0.5,0.5-1.2,1c-0.3,0.2-3.7,2.7-3.9,2.9c-0.4,0.3-0.9,0.6-1.5,1.5c-0.3-0.8-0.5-1.7-0.6-2.5c0-0.2,0-2.4,0.1-3.2
	c0-0.5,2.7-1.5,4.3-1.8c0.8-0.1,2.9-0.5,3.2,0.1C27.6,28.8,27.1,28.8,27,30.4z M22.9,21c-0.2-1.3-0.6-2.4-0.6-3.6
	c0-0.9,0.1-1.7,0.2-2.6c0-0.2,0.3-0.3,0.5-0.3c0.9-0.2,2.3-0.5,2.5-0.5s0.3,0,0.5,0.1c0,0.2,0,0.4,0,0.5c-0.1,0.9-0.3,1.6-0.4,2.5
	c0,0.2-0.1,1.4-0.1,1.8c0,0.4,0.8,1.9,1,2.4c0.4,0.8,0.6,1.3,0.6,1.9c0,0.2-0.2,0.5-0.6,0.9c-1,0.5-1.1,0.3-1.5,0.8
	c-1.5,1.5-2.2,1.9-3.3,2.9c-0.5,0.4-0.6,0.6-1.2,1.3c-0.1,0.1-0.2,0-0.2-0.1c-0.2-1.6,0.1-3.2-0.3-4.8c0.9-0.6,1.6-1.3,2.5-1.8
	c0.1,0,0.5-0.3,0.6-0.3C23,21.7,22.9,21.3,22.9,21z M18.2,45.2c0-0.2-0.2-2-0.3-3c-0.1-0.9-0.1-1.2-0.2-2.8c1.5-0.9,2.3-1.6,3.6-2.4
	c0.5-0.3,1.4-0.5,2.4-1.1c0.8-0.3,1.3-0.5,2.2-1c0.4-0.1,1.2-0.5,1.2-0.2c0,1.1-0.1,2-0.2,3.1c0,0.2,0,0.2-0.3,0.3
	c-3,1.5-4.1,2.9-4.7,3.6c-1.1,1.1-2.7,2.9-3.2,3.9C18.3,45.6,18.2,45.4,18.2,45.2z M20.1,57.6c-0.1-0.4-0.4-1.1-0.5-1.8
	c-0.2-0.8-0.4-1.6-0.5-2.6c-0.2-1-0.4-4.3-0.4-4.6c0-0.9,0-1.5,0.2-1.6c1.4-0.4,2.6-1.5,3.8-2.2c0.2-0.1,0.1,0.6,0,0.9
	c-0.1,0.4-0.8,2.6-0.6,3.6c0,0.5,0.5,2.6,1,4.4c0.1,0.3,0.1,0.2-0.1,0.5c-0.4,0.8-1.3,2-1.7,2.8C20.5,57.3,20.1,57.8,20.1,57.6z
	 M22.3,62.2c-0.2,0.4-0.1,0.6-0.4,1.1c0,0.1-0.4,0.2-0.5,0c-0.1-0.5-0.1-1.3-0.3-1.7c-0.2-0.8-0.1-1.2-0.3-1.6
	c-0.1-0.5-0.4-1-0.6-1.5c0.5-0.2,1.1-0.5,1.6-0.9s1.9-1.4,2.2-1.6c0.4-0.3,0.9-0.6,1-0.2c0.1,1.1,0.4,1.8,0.8,2.7
	C25.3,58.7,23.4,60.4,22.3,62.2z M34,64.1c-1-0.5-1.9-0.9-2.8-1.4c-0.4-0.2-1-0.6-1.1-1c-0.1-0.2-0.3-0.6-0.4-1.3
	c0-0.6-0.1-2-0.1-2.4c0-0.4,0-1.6,0.1-2.4c0.1-0.4,0.6,0,1,0.1c0.6,0.3,1.5,0.5,1.8,1.2c0.5,0.9,0.1,1.9,0.3,2.9
	c0.3,1.4,1.2,2.6,1.5,4C34.4,64.2,34.2,64.2,34,64.1z M39.7,63.7c-0.1,0.4-0.3,0.6-0.3,1.1c-0.1,0.5-0.2,1.1-0.4,1.5
	c-0.5-1-0.9-2-1.3-3c-0.3-0.9-0.9-1.5-1.5-2.3c0.2-0.4,0.2-0.9,0.2-1.4c0-0.2,0-0.4,0-0.6c0-0.3,0.1-0.6,0.4-0.9
	c0.3-0.2,0.8,0.3,1.2,0.5c0.8,0.4,1.3,1,1.5,1.7c0.2,0.5,0.1,0.9,0.2,1.5c0,0,0.2,0.3,0.2,0.4C39.9,62.8,39.8,63.2,39.7,63.7z
	 M57.9,54.9c-0.1,0.3-0.8,1.5-1.1,2.2c-1-1.1-1.8-1.9-2.6-2.4c-0.1,0-0.1,0-0.2,0.1c0.1,1,0.1,2.2-0.3,3c-0.1,0.3-0.3,0.4-0.6,0.5
	c-0.1,0.1-0.9,0.1-1.1,0.1c-0.3,0-0.5,0-0.8,0c-0.9-0.2-0.5-1.5-1.1-2.4c-0.1-0.1-0.2-0.4-0.4-0.4c-0.2,0.1-0.2,0.2-0.2,0.3
	s-0.5,1.4-0.8,1.9c-0.1,0.2-0.3,0.6-0.8,0.5c-1.2-0.4-1.9-0.1-2.2-1c-0.2-0.9-0.1-1.5-0.1-2.6c0-0.4,0-0.8,0-1.1
	c0-0.1,0-0.2-0.2-0.1c-0.9,0.5-1.3,1.3-2.2,1.8c-0.2,0.2-0.5-0.4-0.6-0.6c-0.6-1.1-1.1-2.3-1.2-3.6c0.3-0.1,1.7-0.8,1.9-0.8
	c4.8-1.7,10.5-1.9,15.2,0.6C58.5,52.4,58.3,53.7,57.9,54.9z"/>
<path class="st0" d="M40.2,44c-0.2,0.1-0.3,0.2-0.3,0.5c0,0.1,0.1,0.3,0.1,0.4c0,0.1,0,0.4,0.2,0.8c0.9-0.3,1.1-0.5,1.7-0.8
	c0.2-0.1,0.5-0.1,0.8-0.2c0.3-0.2,0.6-0.4,0.9-0.9c-0.5-0.2-1.2-0.3-1.8-0.2C41.2,43.9,40.7,43.8,40.2,44z"/>
<path class="st0" d="M47.8,21.2c0.1-0.1,0.1-0.3-0.1-0.3c-0.6-0.1-1.2-0.1-1.7,0c-0.6,0.2-1.5,0.6-2.5,1.4c-0.9,0.6-1.5,1.2-1.5,2
	c0.2,0,1.3,0,1.7,0c1.3,0.1,1.7,0.5,2.3-0.3C46.6,22.9,47,22.1,47.8,21.2z"/>
</svg>
